<svg width="180" height="40" viewBox="0 0 180 40" fill="none" xmlns="http://www.w3.org/2000/svg">
  <rect x="4" y="29" width="32" height="2.4" rx="1.2" fill="#00e5a0"/>
  <rect x="4" y="12" width="11.5" height="14" rx="2" fill="none" stroke="#00e5a0" stroke-width="1.6"/>
  <rect x="6.8" y="15" width="5.8" height="1.1" rx=".55" fill="#00e5a0" opacity=".45"/>
  <rect x="6.8" y="17.5" width="3.8" height="1.1" rx=".55" fill="#00e5a0" opacity=".26"/>
  <rect x="6.8" y="20" width="4.8" height="1.1" rx=".55" fill="#00e5a0" opacity=".26"/>
  <rect x="24.5" y="12" width="11.5" height="14" rx="2" fill="none" stroke="#00e5a0" stroke-width="1.6"/>
  <rect x="27.3" y="15" width="5.8" height="1.1" rx=".55" fill="#00e5a0" opacity=".45"/>
  <rect x="27.3" y="17.5" width="3.5" height="1.1" rx=".55" fill="#00e5a0" opacity=".26"/>
  <rect x="27.3" y="20" width="4.8" height="1.1" rx=".55" fill="#00e5a0" opacity=".26"/>
  <line x1="15.5" y1="19" x2="24.5" y2="19" stroke="#00e5a0" stroke-width="1.2" stroke-dasharray="1.6 2" opacity=".6"/>
  <circle cx="20" cy="19" r="2.4" fill="#00e5a0"/>
  <circle cx="20" cy="19" r="1" fill="#07090c"/>
  <line x1="10" y1="26" x2="10" y2="29" stroke="#00e5a0" stroke-width="1.2" opacity=".45"/>
  <line x1="30" y1="26" x2="30" y2="29" stroke="#00e5a0" stroke-width="1.2" opacity=".45"/>
  <circle cx="20" cy="6.5" r="2.8" fill="none" stroke="#00e5a0" stroke-width="1.2" opacity=".45"/>
  <circle cx="20" cy="6.5" r="1" fill="#00e5a0" opacity=".5"/>
  <text x="52" y="27" font-family="'Fraunces', serif" font-size="18" font-weight="300" fill="#dde4ec" letter-spacing="-0.02em">MemexHQ</text>
</svg>
